<svg width="20" height="20" viewBox="0 0 20 20" fill="none" xmlns="http://www.w3.org/2000/svg">
<path d="M9.16675 12.4998H10.8334V14.1665H9.16675V12.4998ZM9.16675 5.83317H10.8334V10.8332H9.16675V5.83317ZM9.99175 1.6665C5.39175 1.6665 1.66675 5.39984 1.66675 9.99984C1.66675 14.5998 5.39175 18.3332 9.99175 18.3332C14.6001 18.3332 18.3334 14.5998 18.3334 9.99984C18.3334 5.39984 14.6001 1.6665 9.99175 1.6665ZM10.0001 16.6665C6.31675 16.6665 3.33341 13.6832 3.33341 9.99984C3.33341 6.3165 6.31675 3.33317 10.0001 3.33317C13.6834 3.33317 16.6667 6.3165 16.6667 9.99984C16.6667 13.6832 13.6834 16.6665 10.0001 16.6665Z" fill="#FF5C79"/>
</svg>
