<?xml version="1.0" encoding="UTF-8"?>
<svg width="50px" height="32px" viewBox="0 0 50 32" version="1.1" xmlns="http://www.w3.org/2000/svg">
    <g id="Dialoogid" stroke="none" stroke-width="1" fill="#F04E23" fill-rule="nonzero">
        <path id="Border" d="m 25.000333,4.083 3.25,5.4166667 H 26.083666 V 17.49575 l 3.25,-1.623916 -0.0011,-0.9555 H 28.250333 V 10.583 h 4.333333 v 4.333334 H 31.49925 l 0.0011,2.2945 -5.416667,2.708333 v 1.682417 c 1.26315,0.446333 2.16665,1.649916 2.16665,3.06475 0,1.795083 -1.454917,3.25 -3.25,3.25 -1.795083,0 -3.25,-1.454917 -3.25,-3.25 0,-1.285917 0.7475,-2.397417 1.830833,-2.925 l -5.080833,-3.575 -0.0011,-2.457 C 17.8525,15.3345 17.417,14.634667 17.417,13.833 c 0,-1.197083 0.969583,-2.166667 2.166667,-2.166667 1.197083,0 2.166666,0.969584 2.166666,2.166667 0,0.801667 -0.4355,1.502584 -1.083333,1.876334 V 17.083 l 3.25,2.259834 V 9.4996667 h -2.166667 z m 0,19.5 c -0.598,0 -1.083333,0.485334 -1.083333,1.083334 0,0.598 0.485333,1.083333 1.083333,1.083333 0.598,0 1.083333,-0.485333 1.083333,-1.083333 0,-0.598 -0.485333,-1.083334 -1.083333,-1.083334 z"/>
        <path id="cardreader" d="M44.8820972,32 L5.11790278,32 C2.29249192,31.997295 0.00272328948,29.7228632 0,26.916377 L0,5.08362298 C0.00272328948,2.27713677 2.29249192,0.00270504884 5.11790278,0 L44.8820972,0 C47.7075081,0.00270504884 49.9972767,2.27713677 50,5.08362298 L50,26.916377 C49.9972767,29.7228632 47.7075081,31.997295 44.8820972,32 L44.8820972,32 Z M5.11790278,1.7403394 C3.25703153,1.74214272 1.74895025,3.24012285 1.74713476,5.08852995 L1.74713476,26.921284 C1.74895025,28.7696911 3.25703153,30.2676712 5.11790278,30.2694745 L44.8820972,30.2694745 C46.7425929,30.2667721 48.2501445,28.769318 48.2528652,26.921284 L48.2528652,5.08362298 C48.2501445,3.23558895 46.7425929,1.73813489 44.8820972,1.73543243 L5.11790278,1.7403394 Z"/>
    </g>
</svg>