<svg width="50" height="32" viewBox="0 0 50 32" fill="none" xmlns="http://www.w3.org/2000/svg">
<path fill-rule="evenodd" clip-rule="evenodd" d="M28.25 9.50004L25 4.08337L21.75 9.50004H23.9167V19.3432L20.6667 17.0834V15.7097C21.3145 15.336 21.75 14.635 21.75 13.8334C21.75 12.6363 20.7804 11.6667 19.5833 11.6667C18.3863 11.6667 17.4167 12.6363 17.4167 13.8334C17.4167 14.635 17.8522 15.3349 18.4989 15.7097L18.5 18.1667L23.5808 21.7417C22.4975 22.2693 21.75 23.3808 21.75 24.6667C21.75 26.4618 23.2049 27.9167 25 27.9167C26.7951 27.9167 28.25 26.4618 28.25 24.6667C28.25 23.2519 27.3465 22.0483 26.0833 21.602V19.9195L31.5 17.2112L31.4989 14.9167H32.5833V10.5834H28.25V14.9167H29.3323L29.3333 15.8722L26.0833 17.4961V9.50004H28.25ZM23.9167 24.6667C23.9167 24.0687 24.402 23.5834 25 23.5834C25.598 23.5834 26.0833 24.0687 26.0833 24.6667C26.0833 25.2647 25.598 25.75 25 25.75C24.402 25.75 23.9167 25.2647 23.9167 24.6667Z" fill="#CD2541"/>
<path fill-rule="evenodd" clip-rule="evenodd" d="M5.1179 32H44.8821C47.7075 31.9973 49.9973 29.7229 50 26.9164V5.08362C49.9973 2.27714 47.7075 0.00270505 44.8821 0H5.1179C2.29249 0.00270505 0.00272329 2.27714 0 5.08362V26.9164C0.00272329 29.7229 2.29249 31.9973 5.1179 32ZM1.74713 5.08853C1.74895 3.24012 3.25703 1.74214 5.1179 1.74034L44.8821 1.73543C46.7426 1.73813 48.2501 3.23559 48.2529 5.08362V26.9213C48.2501 28.7693 46.7426 30.2668 44.8821 30.2695H5.1179C3.25703 30.2677 1.74895 28.7697 1.74713 26.9213V5.08853Z" fill="#CD2541"/>
</svg>
