<?xml version="1.0" encoding="UTF-8"?>
<svg width="28px" height="26px" viewBox="0 0 28 26" version="1.1" xmlns="http://www.w3.org/2000/svg">
    <g id="help" transform="translate(1.000000, 1.000000)" stroke="#113F8E" stroke-width="2" fill="none" fill-rule="evenodd" stroke-linecap="round" stroke-linejoin="round">
        <path d="M14.07776,23.81872 C17.1236,23.28328 19.8452,21.59256 21.6748,19.0992 C23.50432,16.60576 24.30064,13.50232 23.8976,10.43608 C23.49456,7.36984 21.92328,4.5776 19.51144,2.641744 C17.09968,0.705896 14.0336,-0.224072 10.9528,0.045808 C7.872,0.315688 5.014312,1.764576 2.975824,4.090272 C0.937344,6.415968 -0.1245456,9.43888 0.011656,12.52848 C0.147856,15.61808 1.471616,18.53584 3.70684,20.67312 C5.942064,22.81048 8.91616,24.00224 12.0088,24.0000005" id="Path"/>
        <path d="M6.893456,8.58752 C6.893456,7.22968 7.43248,5.927472 8.39192,4.96732 C9.35136,4.00716 10.65264,3.467576 12.00952,3.467576 C13.36648,3.467576 14.66776,4.00716 15.6272,4.96732 C16.58664,5.927472 17.1256,7.22968 17.1256,8.58752 C17.1256,9.65096 16.79464,10.688 16.17896,11.55472 C15.56328,12.42152 14.69328,13.07512 13.6896,13.42472 C13.1908,13.60928 12.76136,13.944 12.46048,14.3828 C12.15968,14.8216 12.00208,15.34296 12.00952,15.87512 L12.00952,16.26864" id="Path"/>
        <path d="M12.0096,18.82696 L12.0096,20.10696" id="Path"/>
    </g>
</svg>