<?xml version="1.0" encoding="UTF-8"?>
<svg width="50px" height="32px" viewBox="0 0 50 32" version="1.1" xmlns="http://www.w3.org/2000/svg">
    <g id="id-card" stroke-width="1.78" fill="#F04E23">
        <rect fill="none" stroke="#F04E23" x="1" y="1" width="48" height="30" rx="5"/>
        <circle fill="none" stroke="#F04E23" cx="17.4" cy="9.3" r="4"/>
        <path d="M26.7857143,28.4444444 L25.0432955,28.4444444 L25.0432955,19.4012457 C25.0423901,18.4650482 24.2672243,17.7063312 23.3107301,17.705445 L10.6178413,17.705445 C9.66134715,17.7063312 8.8861813,18.4650482 8.88527596,19.4012457 L8.88527596,24.3986337 L7.14285714,24.3986337 L7.14285714,19.4012457 C7.14466784,17.5235242 8.69941107,16.0017723 10.6178413,16 L23.3107301,16 C25.2291604,16.0017723 26.7839036,17.5235242 26.7857143,19.4012457 L26.7857143,28.4444444 Z"/>
        <rect x="29.5" y="8" width="12.5" height="1.78"/>
        <rect x="29.5" y="12.5" width="12.5" height="1.78"/>
    </g>
</svg>