<svg width="50" height="32" viewBox="0 0 50 32" fill="none" xmlns="http://www.w3.org/2000/svg">
<rect x="0.892883" y="0.888916" width="47.3214" height="29.3333" rx="2.295" fill="white"/>
<path fill-rule="evenodd" clip-rule="evenodd" d="M5.1179 32H44.8821C47.7075 31.9973 49.9973 29.7229 50 26.9164V5.08362C49.9973 2.27714 47.7075 0.00270505 44.8821 0H5.1179C2.29249 0.00270505 0.00272329 2.27714 0 5.08362V26.9164C0.00272329 29.7229 2.29249 31.9973 5.1179 32ZM1.74713 5.08853C1.74895 3.24012 3.25703 1.74214 5.1179 1.74034L44.8821 1.73543C46.7426 1.73813 48.2501 3.23559 48.2529 5.08362V26.9213C48.2501 28.7693 46.7426 30.2668 44.8821 30.2695H5.1179C3.25703 30.2677 1.74895 28.7697 1.74713 26.9213V5.08853Z" fill="#113F8E"/>
<path d="M8.03571 24.411V19.4305C8.03931 18.0283 9.2005 16.8924 10.634 16.8889H23.2962C24.7291 16.8933 25.8893 18.0289 25.8928 19.4305V28.4445" fill="white"/>
<path d="M26.7857 28.4444H25.0433V19.4012C25.0424 18.465 24.2673 17.7063 23.3108 17.7054H10.6179C9.66137 17.7063 8.88621 18.465 8.8853 19.4012V24.3986H7.14288V19.4012C7.14469 17.5235 8.69944 16.0018 10.6179 16H23.3108C25.2292 16.0018 26.7839 17.5235 26.7857 19.4012V28.4444Z" fill="#113F8E"/>
<ellipse cx="17.4107" cy="9.33337" rx="4.01786" ry="4" fill="white"/>
<path fill-rule="evenodd" clip-rule="evenodd" d="M12.8738 11.2039C13.6338 13.0309 15.4245 14.2222 17.4108 14.2222C20.1214 14.2204 22.3186 12.0337 22.3214 9.33513C22.3221 7.35763 21.1261 5.57446 19.2912 4.81723C17.4563 4.06 15.3438 4.47784 13.939 5.8759C12.5343 7.27396 12.1138 9.37686 12.8738 11.2039ZM14.3223 9.33342C14.3223 7.63529 15.7051 6.25869 17.4108 6.25869C19.1165 6.25869 20.4992 7.63529 20.4992 9.33342C20.4992 11.0315 19.1165 12.4081 17.4108 12.4081C15.7051 12.4081 14.3223 11.0315 14.3223 9.33342Z" fill="#113F8E"/>
<rect x="29.4643" y="8" width="12.5" height="1.77778" fill="#113F8E"/>
<rect x="29.4643" y="12.4445" width="12.5" height="1.77778" fill="#113F8E"/>
</svg>
