<?xml version="1.0" encoding="UTF-8"?>
<svg width="50px" height="32px" viewBox="0 0 50 32" version="1.1" xmlns="http://www.w3.org/2000/svg">
    <g id="id-kaart" stroke="none" stroke-width="1" fill="#F04E23" fill-rule="nonzero">
        <rect fill="#FFFFFF" x="0.892857143" y="0.888888889" width="47.3214286" height="29.3333333" rx="2.295"/>
        <path d="M44.8820972,32 L5.11790278,32 C2.29249192,31.997295 0.00272328948,29.7228632 0,26.916377 L0,5.08362298 C0.00272328948,2.27713677 2.29249192,0.00270504884 5.11790278,0 L44.8820972,0 C47.7075081,0.00270504884 49.9972767,2.27713677 50,5.08362298 L50,26.916377 C49.9972767,29.7228632 47.7075081,31.997295 44.8820972,32 L44.8820972,32 Z M5.11790278,1.7403394 C3.25703153,1.74214272 1.74895025,3.24012285 1.74713476,5.08852995 L1.74713476,26.921284 C1.74895025,28.7696911 3.25703153,30.2676712 5.11790278,30.2694745 L44.8820972,30.2694745 C46.7425929,30.2667721 48.2501445,28.769318 48.2528652,26.921284 L48.2528652,5.08362298 C48.2501445,3.23558895 46.7425929,1.73813489 44.8820972,1.73543243 L5.11790278,1.7403394 Z"/>
        <path fill="#FFFFFF" d="M8.03571429,24.4109771 L8.03571429,19.4304381 C8.03931607,18.0282411 9.20050568,16.892412 10.6340105,16.8888889 L23.2961992,16.8888889 C24.7290642,16.8932919 25.8892595,18.0288645 25.8928571,19.4304381 L25.8928571,28.4444444"/>
        <path d="M26.7857143,28.4444444 L25.0432955,28.4444444 L25.0432955,19.4012457 C25.0423901,18.4650482 24.2672243,17.7063312 23.3107301,17.705445 L10.6178413,17.705445 C9.66134715,17.7063312 8.8861813,18.4650482 8.88527596,19.4012457 L8.88527596,24.3986337 L7.14285714,24.3986337 L7.14285714,19.4012457 C7.14466784,17.5235242 8.69941107,16.0017723 10.6178413,16 L23.3107301,16 C25.2291604,16.0017723 26.7839036,17.5235242 26.7857143,19.4012457 L26.7857143,28.4444444 Z"/>
        <ellipse fill="#FFFFFF" cx="17.4107143" cy="9.33333333" rx="4.01785714" ry="4"/>
        <path d="M17.4107855,14.2222222 C15.4244601,14.2222222 13.6337533,13.030915 12.8737799,11.2038794 C12.1138064,9.37684378 12.5342547,7.27394224 13.9390443,5.87588467 C15.3438339,4.47782711 17.45627,4.05998238 19.2911961,4.81721669 C21.1261223,5.574451 22.3221217,7.35761546 22.321428,9.33511287 C22.318589,12.0336842 20.1214047,14.2203392 17.4107855,14.2222222 L17.4107855,14.2222222 Z M17.4107855,6.25867668 C15.7050794,6.25867668 14.3223314,7.6352793 14.3223314,9.33340469 C14.3223314,11.0315301 15.7050794,12.4081327 17.4107855,12.4081327 C19.1164917,12.4081327 20.4992397,11.0315301 20.4992397,9.33340469 C20.4992397,7.6352793 19.1164917,6.25867668 17.4107855,6.25867668 Z"/>
        <rect x="29.4642857" y="8" width="12.5" height="1.77777778"/>
        <rect x="29.4642857" y="12.4444444" width="12.5" height="1.77777778"/>
    </g>
</svg>