<svg width="25" height="24" viewBox="0 0 25 24" fill="none" xmlns="http://www.w3.org/2000/svg">
<path d="M21.7436 20.1563V4.81408C21.7436 4.72433 21.7147 4.6506 21.657 4.5929C21.5993 4.53522 21.5256 4.50638 21.4359 4.50638H3.5641C3.47435 4.50638 3.40063 4.53522 3.34293 4.5929C3.28523 4.6506 3.25638 4.72433 3.25638 4.81408V12.5064H2V4.81408C2 4.38449 2.15398 4.01642 2.46195 3.70985C2.7699 3.40328 3.13728 3.25 3.5641 3.25H21.4359C21.8627 3.25 22.2301 3.40398 22.538 3.71193C22.846 4.01989 23 4.38728 23 4.81408V18.6057C23 18.9819 22.8819 19.3153 22.6458 19.6058C22.4097 19.8963 22.1089 20.0798 21.7436 20.1563ZM9.49998 13.682C8.53749 13.682 7.73384 13.3596 7.08903 12.7148C6.44421 12.07 6.1218 11.2653 6.1218 10.3006C6.1218 9.33601 6.44421 8.53236 7.08903 7.88968C7.73384 7.24701 8.53749 6.92568 9.49998 6.92568C10.4625 6.92568 11.2661 7.24701 11.9109 7.88968C12.5557 8.53236 12.8782 9.33601 12.8782 10.3006C12.8782 11.2653 12.5557 12.07 11.9109 12.7148C11.2661 13.3596 10.4625 13.682 9.49998 13.682ZM9.49998 12.4256C10.0995 12.4256 10.6031 12.2219 11.0106 11.8144C11.418 11.4069 11.6218 10.9034 11.6218 10.3038C11.6218 9.70426 11.418 9.20074 11.0106 8.79325C10.6031 8.38579 10.0995 8.18205 9.49998 8.18205C8.90041 8.18205 8.39688 8.38579 7.9894 8.79325C7.58192 9.20074 7.37818 9.70426 7.37818 10.3038C7.37818 10.9034 7.58192 11.4069 7.9894 11.8144C8.39688 12.2219 8.90041 12.4256 9.49998 12.4256ZM2.00002 21.3076V19.3013C2.00002 18.7799 2.13923 18.3168 2.41765 17.9119C2.69607 17.5069 3.06113 17.1957 3.51283 16.9782C4.54403 16.5047 5.55283 16.1485 6.53923 15.9096C7.52563 15.6707 8.51248 15.5513 9.49978 15.5513C10.4871 15.5513 11.4723 15.6724 12.4554 15.9148C13.4385 16.1571 14.4443 16.5131 15.4727 16.9828C15.9363 17.1999 16.3067 17.5102 16.584 17.9138C16.8613 18.3174 17 18.7799 17 19.3013V21.3076H2.00002ZM3.25638 20.0513H15.7436V19.3013C15.7436 19.0602 15.6691 18.8315 15.5202 18.615C15.3712 18.3986 15.1748 18.2269 14.9307 18.1C13.988 17.6397 13.0768 17.3093 12.1972 17.1086C11.3176 16.908 10.4185 16.8077 9.49998 16.8077C8.58143 16.8077 7.67786 16.908 6.78928 17.1086C5.90069 17.3093 4.99058 17.6397 4.05895 18.1C3.81493 18.2269 3.62017 18.3986 3.47465 18.615C3.32913 18.8315 3.25638 19.0602 3.25638 19.3013V20.0513Z" fill="#FF5C79"/>
</svg>