<svg width="50" height="32" viewBox="0 0 50 32" fill="none" xmlns="http://www.w3.org/2000/svg">
<rect x="1.33932" y="1.33337" width="47.3214" height="29.3333" rx="2.295" fill="#232325"/>
<path fill-rule="evenodd" clip-rule="evenodd" d="M5.1179 32H44.8821C47.7075 31.9973 49.9973 29.7229 50 26.9164V5.08362C49.9973 2.27714 47.7075 0.00270505 44.8821 0H5.1179C2.29249 0.00270505 0.00272329 2.27714 0 5.08362V26.9164C0.00272329 29.7229 2.29249 31.9973 5.1179 32ZM1.74713 5.08853C1.74895 3.24012 3.25703 1.74214 5.1179 1.74034L44.8821 1.73543C46.7426 1.73813 48.2501 3.23559 48.2529 5.08362V26.9213C48.2501 28.7693 46.7426 30.2668 44.8821 30.2695H5.1179C3.25703 30.2677 1.74895 28.7697 1.74713 26.9213V5.08853Z" fill="#F54A67"/>
<path fill-rule="evenodd" clip-rule="evenodd" d="M16.8683 6.45406L15.4541 7.86827L23.5858 16L15.4541 24.1317L16.8683 25.5459L25 17.4142L33.1317 25.5459L34.5459 24.1317L26.4142 16L34.5459 7.86827L33.1317 6.45406L25 14.5858L16.8683 6.45406Z" fill="#F54A67"/>
</svg>
