<?xml version="1.0" encoding="UTF-8"?>
<svg width="20px" height="18px" viewBox="0 0 20 18" version="1.1" xmlns="http://www.w3.org/2000/svg">
    <g id="origin" stroke="none" stroke-width="1" fill="none" fill-rule="evenodd" transform="translate(-2.000000, -3.000000)">
        <polygon points="0 0 24 0 24 24 0 24"/>
        <path fill="#FFFFFF" fill-rule="nonzero" d="M3,3 L21,3 C21.5522847,3 22,3.44771525 22,4 L22,20 C22,20.5522847 21.5522847,21 21,21 L3,21 C2.44771525,21 2,20.5522847 2,20 L2,4 C2,3.44771525 2.44771525,3 3,3 Z M20,11 L4,11 L4,19 L20,19 L20,11 Z M20,9 L20,5 L4,5 L4,9 L20,9 Z M9,6 L11,6 L11,8 L9,8 L9,6 Z M5,6 L7,6 L7,8 L5,8 L5,6 Z"/>
    </g>
</svg>