<svg width="48" height="48" viewBox="0 0 48 48" fill="none" xmlns="http://www.w3.org/2000/svg">
<path d="M23.9939 42.9999C21.3518 42.9999 18.8759 42.5099 16.5662 41.5299C14.2565 40.5499 12.2413 39.1996 10.5208 37.4791C8.80027 35.7586 7.45 33.7435 6.47 31.4338C5.49 29.124 5 26.6481 5 24.0061C5 21.3528 5.49103 18.8711 6.4731 16.5611C7.45513 14.2511 8.80448 12.2378 10.5212 10.5212C12.2378 8.80449 14.2533 7.45514 16.5676 6.4731C18.8819 5.49104 21.3593 5 24 5C24.3096 5 24.5761 5.11177 24.7995 5.3353C25.0229 5.55883 25.1346 5.8255 25.1346 6.1353C25.1346 6.4451 25.0229 6.71153 24.7995 6.9346C24.5761 7.15767 24.3096 7.2692 24 7.2692C19.3769 7.2692 15.4327 8.90189 12.1673 12.1673C8.90188 15.4327 7.2692 19.3769 7.2692 24C7.2692 28.623 8.90188 32.5673 12.1673 35.8327C15.4327 39.098 19.3769 40.7307 24 40.7307C28.623 40.7307 32.5673 39.098 35.8327 35.8327C39.098 32.5673 40.7307 28.623 40.7307 24C40.7307 23.6897 40.8425 23.4231 41.066 23.2C41.2895 22.9769 41.5562 22.8654 41.866 22.8654C42.1758 22.8654 42.4422 22.9771 42.6653 23.2005C42.8884 23.4239 42.9999 23.6904 42.9999 24C42.9999 26.6406 42.5089 29.118 41.5268 31.4323C40.5448 33.7466 39.1954 35.7621 37.4788 37.4788C35.7621 39.1954 33.7488 40.5448 31.4388 41.5268C29.1288 42.5089 26.6472 42.9999 23.9939 42.9999Z" fill="#003168">
<animateTransform attributeName="transform" attributeType="xml" dur="0.6s" from="0 24 24" repeatCount="indefinite" to="360 24 24" type="rotate"/>
</path>
</svg>